<mxfile host="app.diagrams.net" modified="2021-07-10T08:25:58.253Z" agent="5.0 (X11; Linux x86_64) AppleWebKit/537.36 (KHTML, like Gecko) Chrome/78.0.3904.70 Safari/537.36" etag="m6tqgNhK0gTMGOzgVizr" version="14.8.5" type="github">
  <diagram id="C5RBs43oDa-KdzZeNtuy" name="Page-1">
    <mxGraphModel dx="447" dy="776" grid="1" gridSize="10" guides="1" tooltips="1" connect="1" arrows="1" fold="1" page="1" pageScale="1" pageWidth="827" pageHeight="1169" math="0" shadow="0">
      <root>
        <mxCell id="WIyWlLk6GJQsqaUBKTNV-0" />
        <mxCell id="WIyWlLk6GJQsqaUBKTNV-1" parent="WIyWlLk6GJQsqaUBKTNV-0" />
        <mxCell id="c7VK5oUk2JbEQ4RHIsQ8-8" style="edgeStyle=orthogonalEdgeStyle;rounded=0;orthogonalLoop=1;jettySize=auto;html=1;exitX=0.5;exitY=1;exitDx=0;exitDy=0;entryX=0.372;entryY=0.033;entryDx=0;entryDy=0;entryPerimeter=0;" edge="1" parent="WIyWlLk6GJQsqaUBKTNV-1" source="WIyWlLk6GJQsqaUBKTNV-3" target="c7VK5oUk2JbEQ4RHIsQ8-3">
          <mxGeometry relative="1" as="geometry" />
        </mxCell>
        <mxCell id="WIyWlLk6GJQsqaUBKTNV-3" value="woman" style="rounded=1;whiteSpace=wrap;html=1;fontSize=12;glass=0;strokeWidth=1;shadow=0;" parent="WIyWlLk6GJQsqaUBKTNV-1" vertex="1">
          <mxGeometry x="160" y="80" width="120" height="40" as="geometry" />
        </mxCell>
        <mxCell id="c7VK5oUk2JbEQ4RHIsQ8-9" style="edgeStyle=orthogonalEdgeStyle;rounded=0;orthogonalLoop=1;jettySize=auto;html=1;exitX=0.5;exitY=1;exitDx=0;exitDy=0;entryX=0.633;entryY=0;entryDx=0;entryDy=0;entryPerimeter=0;" edge="1" parent="WIyWlLk6GJQsqaUBKTNV-1" source="c7VK5oUk2JbEQ4RHIsQ8-0" target="c7VK5oUk2JbEQ4RHIsQ8-3">
          <mxGeometry relative="1" as="geometry" />
        </mxCell>
        <mxCell id="c7VK5oUk2JbEQ4RHIsQ8-0" value="sol" style="rounded=1;whiteSpace=wrap;html=1;fontSize=12;glass=0;strokeWidth=1;shadow=0;" vertex="1" parent="WIyWlLk6GJQsqaUBKTNV-1">
          <mxGeometry x="300" y="80" width="120" height="40" as="geometry" />
        </mxCell>
        <mxCell id="c7VK5oUk2JbEQ4RHIsQ8-10" style="edgeStyle=orthogonalEdgeStyle;rounded=0;orthogonalLoop=1;jettySize=auto;html=1;exitX=0.5;exitY=1;exitDx=0;exitDy=0;entryX=0.109;entryY=-0.067;entryDx=0;entryDy=0;entryPerimeter=0;" edge="1" parent="WIyWlLk6GJQsqaUBKTNV-1" source="c7VK5oUk2JbEQ4RHIsQ8-1" target="c7VK5oUk2JbEQ4RHIsQ8-3">
          <mxGeometry relative="1" as="geometry" />
        </mxCell>
        <mxCell id="c7VK5oUk2JbEQ4RHIsQ8-1" value="chid" style="rounded=1;whiteSpace=wrap;html=1;fontSize=12;glass=0;strokeWidth=1;shadow=0;" vertex="1" parent="WIyWlLk6GJQsqaUBKTNV-1">
          <mxGeometry x="20" y="80" width="120" height="40" as="geometry" />
        </mxCell>
        <mxCell id="c7VK5oUk2JbEQ4RHIsQ8-11" style="edgeStyle=orthogonalEdgeStyle;rounded=0;orthogonalLoop=1;jettySize=auto;html=1;exitX=0.5;exitY=1;exitDx=0;exitDy=0;entryX=0.891;entryY=0;entryDx=0;entryDy=0;entryPerimeter=0;" edge="1" parent="WIyWlLk6GJQsqaUBKTNV-1" source="c7VK5oUk2JbEQ4RHIsQ8-2" target="c7VK5oUk2JbEQ4RHIsQ8-3">
          <mxGeometry relative="1" as="geometry" />
        </mxCell>
        <mxCell id="c7VK5oUk2JbEQ4RHIsQ8-2" value="old" style="rounded=1;whiteSpace=wrap;html=1;fontSize=12;glass=0;strokeWidth=1;shadow=0;" vertex="1" parent="WIyWlLk6GJQsqaUBKTNV-1">
          <mxGeometry x="440" y="80" width="120" height="40" as="geometry" />
        </mxCell>
        <mxCell id="c7VK5oUk2JbEQ4RHIsQ8-12" style="edgeStyle=orthogonalEdgeStyle;rounded=0;orthogonalLoop=1;jettySize=auto;html=1;" edge="1" parent="WIyWlLk6GJQsqaUBKTNV-1" source="c7VK5oUk2JbEQ4RHIsQ8-3" target="c7VK5oUk2JbEQ4RHIsQ8-4">
          <mxGeometry relative="1" as="geometry" />
        </mxCell>
        <mxCell id="c7VK5oUk2JbEQ4RHIsQ8-3" value="puzzle&amp;amp; quiz" style="rounded=1;whiteSpace=wrap;html=1;" vertex="1" parent="WIyWlLk6GJQsqaUBKTNV-1">
          <mxGeometry x="20" y="150" width="540" height="30" as="geometry" />
        </mxCell>
        <mxCell id="c7VK5oUk2JbEQ4RHIsQ8-13" style="edgeStyle=orthogonalEdgeStyle;rounded=0;orthogonalLoop=1;jettySize=auto;html=1;exitX=0.75;exitY=1;exitDx=0;exitDy=0;entryX=0.668;entryY=0.067;entryDx=0;entryDy=0;entryPerimeter=0;" edge="1" parent="WIyWlLk6GJQsqaUBKTNV-1" source="c7VK5oUk2JbEQ4RHIsQ8-4" target="c7VK5oUk2JbEQ4RHIsQ8-5">
          <mxGeometry relative="1" as="geometry" />
        </mxCell>
        <mxCell id="c7VK5oUk2JbEQ4RHIsQ8-14" style="edgeStyle=orthogonalEdgeStyle;rounded=0;orthogonalLoop=1;jettySize=auto;html=1;exitX=0.25;exitY=1;exitDx=0;exitDy=0;entryX=0.5;entryY=0;entryDx=0;entryDy=0;" edge="1" parent="WIyWlLk6GJQsqaUBKTNV-1" source="c7VK5oUk2JbEQ4RHIsQ8-4" target="c7VK5oUk2JbEQ4RHIsQ8-6">
          <mxGeometry relative="1" as="geometry" />
        </mxCell>
        <mxCell id="c7VK5oUk2JbEQ4RHIsQ8-4" value="담력테스트[시간통합]" style="rounded=1;whiteSpace=wrap;html=1;" vertex="1" parent="WIyWlLk6GJQsqaUBKTNV-1">
          <mxGeometry x="20" y="210" width="540" height="30" as="geometry" />
        </mxCell>
        <mxCell id="c7VK5oUk2JbEQ4RHIsQ8-7" style="edgeStyle=orthogonalEdgeStyle;rounded=0;orthogonalLoop=1;jettySize=auto;html=1;exitX=0;exitY=0.5;exitDx=0;exitDy=0;entryX=1;entryY=0.5;entryDx=0;entryDy=0;" edge="1" parent="WIyWlLk6GJQsqaUBKTNV-1" source="c7VK5oUk2JbEQ4RHIsQ8-5" target="c7VK5oUk2JbEQ4RHIsQ8-6">
          <mxGeometry relative="1" as="geometry" />
        </mxCell>
        <mxCell id="c7VK5oUk2JbEQ4RHIsQ8-17" style="edgeStyle=orthogonalEdgeStyle;rounded=0;orthogonalLoop=1;jettySize=auto;html=1;exitX=0.5;exitY=1;exitDx=0;exitDy=0;entryX=0.75;entryY=0;entryDx=0;entryDy=0;" edge="1" parent="WIyWlLk6GJQsqaUBKTNV-1" source="c7VK5oUk2JbEQ4RHIsQ8-5" target="c7VK5oUk2JbEQ4RHIsQ8-15">
          <mxGeometry relative="1" as="geometry" />
        </mxCell>
        <mxCell id="c7VK5oUk2JbEQ4RHIsQ8-19" style="edgeStyle=orthogonalEdgeStyle;rounded=0;orthogonalLoop=1;jettySize=auto;html=1;exitX=0.75;exitY=1;exitDx=0;exitDy=0;entryX=0.5;entryY=0;entryDx=0;entryDy=0;" edge="1" parent="WIyWlLk6GJQsqaUBKTNV-1" source="c7VK5oUk2JbEQ4RHIsQ8-5" target="c7VK5oUk2JbEQ4RHIsQ8-16">
          <mxGeometry relative="1" as="geometry" />
        </mxCell>
        <mxCell id="c7VK5oUk2JbEQ4RHIsQ8-5" value="직업에 대한 테스트" style="rounded=1;whiteSpace=wrap;html=1;" vertex="1" parent="WIyWlLk6GJQsqaUBKTNV-1">
          <mxGeometry x="160" y="270" width="400" height="30" as="geometry" />
        </mxCell>
        <mxCell id="c7VK5oUk2JbEQ4RHIsQ8-18" style="edgeStyle=orthogonalEdgeStyle;rounded=0;orthogonalLoop=1;jettySize=auto;html=1;exitX=0.5;exitY=1;exitDx=0;exitDy=0;entryX=0.25;entryY=0;entryDx=0;entryDy=0;" edge="1" parent="WIyWlLk6GJQsqaUBKTNV-1" source="c7VK5oUk2JbEQ4RHIsQ8-6" target="c7VK5oUk2JbEQ4RHIsQ8-15">
          <mxGeometry relative="1" as="geometry" />
        </mxCell>
        <mxCell id="c7VK5oUk2JbEQ4RHIsQ8-6" value="결과물 받음" style="rounded=1;whiteSpace=wrap;html=1;fontSize=12;glass=0;strokeWidth=1;shadow=0;" vertex="1" parent="WIyWlLk6GJQsqaUBKTNV-1">
          <mxGeometry x="20" y="270" width="120" height="30" as="geometry" />
        </mxCell>
        <mxCell id="c7VK5oUk2JbEQ4RHIsQ8-25" style="edgeStyle=orthogonalEdgeStyle;rounded=0;orthogonalLoop=1;jettySize=auto;html=1;exitX=0.25;exitY=1;exitDx=0;exitDy=0;entryX=0.5;entryY=0;entryDx=0;entryDy=0;" edge="1" parent="WIyWlLk6GJQsqaUBKTNV-1" source="c7VK5oUk2JbEQ4RHIsQ8-15" target="c7VK5oUk2JbEQ4RHIsQ8-22">
          <mxGeometry relative="1" as="geometry" />
        </mxCell>
        <mxCell id="c7VK5oUk2JbEQ4RHIsQ8-26" style="edgeStyle=orthogonalEdgeStyle;rounded=0;orthogonalLoop=1;jettySize=auto;html=1;exitX=0.5;exitY=1;exitDx=0;exitDy=0;entryX=0.5;entryY=0;entryDx=0;entryDy=0;" edge="1" parent="WIyWlLk6GJQsqaUBKTNV-1" source="c7VK5oUk2JbEQ4RHIsQ8-15" target="c7VK5oUk2JbEQ4RHIsQ8-24">
          <mxGeometry relative="1" as="geometry" />
        </mxCell>
        <mxCell id="c7VK5oUk2JbEQ4RHIsQ8-27" style="edgeStyle=orthogonalEdgeStyle;rounded=0;orthogonalLoop=1;jettySize=auto;html=1;exitX=0.75;exitY=1;exitDx=0;exitDy=0;entryX=0.5;entryY=0;entryDx=0;entryDy=0;" edge="1" parent="WIyWlLk6GJQsqaUBKTNV-1" source="c7VK5oUk2JbEQ4RHIsQ8-15" target="c7VK5oUk2JbEQ4RHIsQ8-21">
          <mxGeometry relative="1" as="geometry" />
        </mxCell>
        <mxCell id="c7VK5oUk2JbEQ4RHIsQ8-15" value="미로에서의 충돌 이벤트" style="rounded=1;whiteSpace=wrap;html=1;" vertex="1" parent="WIyWlLk6GJQsqaUBKTNV-1">
          <mxGeometry x="20" y="330" width="400" height="40" as="geometry" />
        </mxCell>
        <mxCell id="c7VK5oUk2JbEQ4RHIsQ8-28" style="edgeStyle=orthogonalEdgeStyle;rounded=0;orthogonalLoop=1;jettySize=auto;html=1;exitX=0.5;exitY=1;exitDx=0;exitDy=0;entryX=0.5;entryY=0;entryDx=0;entryDy=0;" edge="1" parent="WIyWlLk6GJQsqaUBKTNV-1" source="c7VK5oUk2JbEQ4RHIsQ8-16" target="c7VK5oUk2JbEQ4RHIsQ8-20">
          <mxGeometry relative="1" as="geometry" />
        </mxCell>
        <mxCell id="c7VK5oUk2JbEQ4RHIsQ8-16" value="치매발생 조짐" style="rounded=1;whiteSpace=wrap;html=1;" vertex="1" parent="WIyWlLk6GJQsqaUBKTNV-1">
          <mxGeometry x="440" y="330" width="120" height="40" as="geometry" />
        </mxCell>
        <mxCell id="c7VK5oUk2JbEQ4RHIsQ8-36" style="edgeStyle=orthogonalEdgeStyle;rounded=0;orthogonalLoop=1;jettySize=auto;html=1;exitX=0.5;exitY=1;exitDx=0;exitDy=0;entryX=0.5;entryY=0;entryDx=0;entryDy=0;" edge="1" parent="WIyWlLk6GJQsqaUBKTNV-1" source="c7VK5oUk2JbEQ4RHIsQ8-20" target="c7VK5oUk2JbEQ4RHIsQ8-32">
          <mxGeometry relative="1" as="geometry" />
        </mxCell>
        <mxCell id="c7VK5oUk2JbEQ4RHIsQ8-20" value="정답 소유" style="rounded=1;whiteSpace=wrap;html=1;" vertex="1" parent="WIyWlLk6GJQsqaUBKTNV-1">
          <mxGeometry x="440" y="400" width="120" height="40" as="geometry" />
        </mxCell>
        <mxCell id="c7VK5oUk2JbEQ4RHIsQ8-35" style="edgeStyle=orthogonalEdgeStyle;rounded=0;orthogonalLoop=1;jettySize=auto;html=1;exitX=0.5;exitY=1;exitDx=0;exitDy=0;entryX=0.5;entryY=0;entryDx=0;entryDy=0;" edge="1" parent="WIyWlLk6GJQsqaUBKTNV-1" source="c7VK5oUk2JbEQ4RHIsQ8-21" target="c7VK5oUk2JbEQ4RHIsQ8-31">
          <mxGeometry relative="1" as="geometry" />
        </mxCell>
        <mxCell id="c7VK5oUk2JbEQ4RHIsQ8-21" value="현장 투입" style="rounded=1;whiteSpace=wrap;html=1;" vertex="1" parent="WIyWlLk6GJQsqaUBKTNV-1">
          <mxGeometry x="300" y="400" width="120" height="40" as="geometry" />
        </mxCell>
        <mxCell id="c7VK5oUk2JbEQ4RHIsQ8-33" style="edgeStyle=orthogonalEdgeStyle;rounded=0;orthogonalLoop=1;jettySize=auto;html=1;exitX=0.5;exitY=1;exitDx=0;exitDy=0;entryX=0.5;entryY=0;entryDx=0;entryDy=0;" edge="1" parent="WIyWlLk6GJQsqaUBKTNV-1" source="c7VK5oUk2JbEQ4RHIsQ8-22" target="c7VK5oUk2JbEQ4RHIsQ8-29">
          <mxGeometry relative="1" as="geometry" />
        </mxCell>
        <mxCell id="c7VK5oUk2JbEQ4RHIsQ8-22" value="보드게임 확인" style="rounded=1;whiteSpace=wrap;html=1;" vertex="1" parent="WIyWlLk6GJQsqaUBKTNV-1">
          <mxGeometry x="20" y="400" width="120" height="40" as="geometry" />
        </mxCell>
        <mxCell id="c7VK5oUk2JbEQ4RHIsQ8-34" style="edgeStyle=orthogonalEdgeStyle;rounded=0;orthogonalLoop=1;jettySize=auto;html=1;exitX=0.5;exitY=1;exitDx=0;exitDy=0;entryX=0.5;entryY=0;entryDx=0;entryDy=0;" edge="1" parent="WIyWlLk6GJQsqaUBKTNV-1" source="c7VK5oUk2JbEQ4RHIsQ8-24" target="c7VK5oUk2JbEQ4RHIsQ8-30">
          <mxGeometry relative="1" as="geometry" />
        </mxCell>
        <mxCell id="c7VK5oUk2JbEQ4RHIsQ8-24" value="모형 확인" style="rounded=1;whiteSpace=wrap;html=1;" vertex="1" parent="WIyWlLk6GJQsqaUBKTNV-1">
          <mxGeometry x="160" y="400" width="120" height="40" as="geometry" />
        </mxCell>
        <mxCell id="c7VK5oUk2JbEQ4RHIsQ8-44" style="edgeStyle=orthogonalEdgeStyle;rounded=0;orthogonalLoop=1;jettySize=auto;html=1;exitX=0.5;exitY=1;exitDx=0;exitDy=0;entryX=0.5;entryY=0;entryDx=0;entryDy=0;" edge="1" parent="WIyWlLk6GJQsqaUBKTNV-1" source="c7VK5oUk2JbEQ4RHIsQ8-29" target="c7VK5oUk2JbEQ4RHIsQ8-39">
          <mxGeometry relative="1" as="geometry" />
        </mxCell>
        <mxCell id="c7VK5oUk2JbEQ4RHIsQ8-29" value="괴한에게 쫓김" style="rounded=1;whiteSpace=wrap;html=1;" vertex="1" parent="WIyWlLk6GJQsqaUBKTNV-1">
          <mxGeometry x="20" y="470" width="120" height="40" as="geometry" />
        </mxCell>
        <mxCell id="c7VK5oUk2JbEQ4RHIsQ8-43" style="edgeStyle=orthogonalEdgeStyle;rounded=0;orthogonalLoop=1;jettySize=auto;html=1;exitX=0.5;exitY=1;exitDx=0;exitDy=0;entryX=0.5;entryY=0;entryDx=0;entryDy=0;" edge="1" parent="WIyWlLk6GJQsqaUBKTNV-1" source="c7VK5oUk2JbEQ4RHIsQ8-30" target="c7VK5oUk2JbEQ4RHIsQ8-42">
          <mxGeometry relative="1" as="geometry" />
        </mxCell>
        <mxCell id="c7VK5oUk2JbEQ4RHIsQ8-30" value="군인에게 쫓김" style="rounded=1;whiteSpace=wrap;html=1;" vertex="1" parent="WIyWlLk6GJQsqaUBKTNV-1">
          <mxGeometry x="160" y="470" width="120" height="40" as="geometry" />
        </mxCell>
        <mxCell id="c7VK5oUk2JbEQ4RHIsQ8-37" style="edgeStyle=orthogonalEdgeStyle;rounded=0;orthogonalLoop=1;jettySize=auto;html=1;exitX=0.25;exitY=0;exitDx=0;exitDy=0;entryX=0.75;entryY=0;entryDx=0;entryDy=0;" edge="1" parent="WIyWlLk6GJQsqaUBKTNV-1" source="c7VK5oUk2JbEQ4RHIsQ8-31" target="c7VK5oUk2JbEQ4RHIsQ8-29">
          <mxGeometry relative="1" as="geometry" />
        </mxCell>
        <mxCell id="c7VK5oUk2JbEQ4RHIsQ8-38" style="edgeStyle=orthogonalEdgeStyle;rounded=0;orthogonalLoop=1;jettySize=auto;html=1;exitX=0.25;exitY=0;exitDx=0;exitDy=0;entryX=0.75;entryY=0;entryDx=0;entryDy=0;" edge="1" parent="WIyWlLk6GJQsqaUBKTNV-1" source="c7VK5oUk2JbEQ4RHIsQ8-31" target="c7VK5oUk2JbEQ4RHIsQ8-30">
          <mxGeometry relative="1" as="geometry" />
        </mxCell>
        <mxCell id="c7VK5oUk2JbEQ4RHIsQ8-45" style="edgeStyle=orthogonalEdgeStyle;rounded=0;orthogonalLoop=1;jettySize=auto;html=1;exitX=0.5;exitY=1;exitDx=0;exitDy=0;entryX=0.25;entryY=0;entryDx=0;entryDy=0;" edge="1" parent="WIyWlLk6GJQsqaUBKTNV-1" source="c7VK5oUk2JbEQ4RHIsQ8-31" target="c7VK5oUk2JbEQ4RHIsQ8-41">
          <mxGeometry relative="1" as="geometry" />
        </mxCell>
        <mxCell id="c7VK5oUk2JbEQ4RHIsQ8-31" value="민간인에게 쫓김&lt;br&gt;(총이벤트로 전체 영향)" style="rounded=1;whiteSpace=wrap;html=1;" vertex="1" parent="WIyWlLk6GJQsqaUBKTNV-1">
          <mxGeometry x="300" y="470" width="120" height="40" as="geometry" />
        </mxCell>
        <mxCell id="c7VK5oUk2JbEQ4RHIsQ8-46" style="edgeStyle=orthogonalEdgeStyle;rounded=0;orthogonalLoop=1;jettySize=auto;html=1;exitX=0.5;exitY=1;exitDx=0;exitDy=0;entryX=0.75;entryY=0;entryDx=0;entryDy=0;" edge="1" parent="WIyWlLk6GJQsqaUBKTNV-1" source="c7VK5oUk2JbEQ4RHIsQ8-32" target="c7VK5oUk2JbEQ4RHIsQ8-41">
          <mxGeometry relative="1" as="geometry" />
        </mxCell>
        <mxCell id="c7VK5oUk2JbEQ4RHIsQ8-32" value="망각에게 쫓김" style="rounded=1;whiteSpace=wrap;html=1;" vertex="1" parent="WIyWlLk6GJQsqaUBKTNV-1">
          <mxGeometry x="440" y="470" width="120" height="40" as="geometry" />
        </mxCell>
        <mxCell id="c7VK5oUk2JbEQ4RHIsQ8-50" style="edgeStyle=orthogonalEdgeStyle;rounded=0;orthogonalLoop=1;jettySize=auto;html=1;exitX=0.5;exitY=1;exitDx=0;exitDy=0;entryX=0.106;entryY=-0.033;entryDx=0;entryDy=0;entryPerimeter=0;" edge="1" parent="WIyWlLk6GJQsqaUBKTNV-1" source="c7VK5oUk2JbEQ4RHIsQ8-39" target="c7VK5oUk2JbEQ4RHIsQ8-49">
          <mxGeometry relative="1" as="geometry" />
        </mxCell>
        <mxCell id="c7VK5oUk2JbEQ4RHIsQ8-39" value="트라우마 회상" style="rounded=1;whiteSpace=wrap;html=1;" vertex="1" parent="WIyWlLk6GJQsqaUBKTNV-1">
          <mxGeometry x="20" y="540" width="120" height="40" as="geometry" />
        </mxCell>
        <mxCell id="c7VK5oUk2JbEQ4RHIsQ8-52" style="edgeStyle=orthogonalEdgeStyle;rounded=0;orthogonalLoop=1;jettySize=auto;html=1;exitX=0.5;exitY=1;exitDx=0;exitDy=0;entryX=0.75;entryY=0;entryDx=0;entryDy=0;" edge="1" parent="WIyWlLk6GJQsqaUBKTNV-1" source="c7VK5oUk2JbEQ4RHIsQ8-41" target="c7VK5oUk2JbEQ4RHIsQ8-49">
          <mxGeometry relative="1" as="geometry" />
        </mxCell>
        <mxCell id="c7VK5oUk2JbEQ4RHIsQ8-41" value="트라우마 회상" style="rounded=1;whiteSpace=wrap;html=1;" vertex="1" parent="WIyWlLk6GJQsqaUBKTNV-1">
          <mxGeometry x="300" y="540" width="260" height="40" as="geometry" />
        </mxCell>
        <mxCell id="c7VK5oUk2JbEQ4RHIsQ8-47" style="edgeStyle=orthogonalEdgeStyle;rounded=0;orthogonalLoop=1;jettySize=auto;html=1;exitX=1;exitY=0.5;exitDx=0;exitDy=0;entryX=0;entryY=0.5;entryDx=0;entryDy=0;" edge="1" parent="WIyWlLk6GJQsqaUBKTNV-1" source="c7VK5oUk2JbEQ4RHIsQ8-42" target="c7VK5oUk2JbEQ4RHIsQ8-41">
          <mxGeometry relative="1" as="geometry" />
        </mxCell>
        <mxCell id="c7VK5oUk2JbEQ4RHIsQ8-48" style="edgeStyle=orthogonalEdgeStyle;rounded=0;orthogonalLoop=1;jettySize=auto;html=1;exitX=0;exitY=0.5;exitDx=0;exitDy=0;" edge="1" parent="WIyWlLk6GJQsqaUBKTNV-1" source="c7VK5oUk2JbEQ4RHIsQ8-42">
          <mxGeometry relative="1" as="geometry">
            <mxPoint x="140" y="560" as="targetPoint" />
          </mxGeometry>
        </mxCell>
        <mxCell id="c7VK5oUk2JbEQ4RHIsQ8-51" style="edgeStyle=orthogonalEdgeStyle;rounded=0;orthogonalLoop=1;jettySize=auto;html=1;exitX=0.5;exitY=1;exitDx=0;exitDy=0;entryX=0.367;entryY=0;entryDx=0;entryDy=0;entryPerimeter=0;" edge="1" parent="WIyWlLk6GJQsqaUBKTNV-1" source="c7VK5oUk2JbEQ4RHIsQ8-42" target="c7VK5oUk2JbEQ4RHIsQ8-49">
          <mxGeometry relative="1" as="geometry" />
        </mxCell>
        <mxCell id="c7VK5oUk2JbEQ4RHIsQ8-42" value="광분 후 타 살인마화" style="rounded=1;whiteSpace=wrap;html=1;" vertex="1" parent="WIyWlLk6GJQsqaUBKTNV-1">
          <mxGeometry x="160" y="540" width="120" height="40" as="geometry" />
        </mxCell>
        <mxCell id="c7VK5oUk2JbEQ4RHIsQ8-49" value="ending" style="rounded=1;whiteSpace=wrap;html=1;" vertex="1" parent="WIyWlLk6GJQsqaUBKTNV-1">
          <mxGeometry x="20" y="610" width="540" height="30" as="geometry" />
        </mxCell>
      </root>
    </mxGraphModel>
  </diagram>
</mxfile>
